{
  "accessors": [
    {
      "bufferView": 2,
      "componentType": 5126,
      "count": 251,
      "max": [
        7619.7392578125,
        8011.86669921875,
        8011.86767578125
      ],
      "min": [
        -7619.73876953125,
        -8011.86669921875,
        -8011.86767578125
      ],
      "type": "VEC3"
    },
    {
      "bufferView": 2,
      "byteOffset": 3012,
      "componentType": 5126,
      "count": 251,
      "max": [
        0.9920780062675476,
        0.9800891280174255,
        0.9435222148895264
      ],
      "min": [
        -0.9920779466629028,
        -0.9435222744941711,
        -0.9435222744941711
      ],
      "type": "VEC3"
    },
    {
      "bufferView": 1,
      "componentType": 5126,
      "count": 251,
      "max": [
        0.9500000476837158,
        1.0
      ],
      "min": [
        -0.20000004768371582,
        0.0
      ],
      "type": "VEC2"
    },
    {
      "bufferView": 0,
      "componentType": 5125,
      "count": 297,
      "type": "SCALAR"
    },
    {
      "bufferView": 2,
      "byteOffset": 6024,
      "componentType": 5126,
      "count": 57,
      "max": [
        5159.00244140625,
        3590.09326171875,
        6475.0419921875
      ],
      "min": [
        -7262.146484375,
        -7773.3759765625,
        -7812.7421875
      ],
      "type": "VEC3"
    },
    {
      "bufferView": 2,
      "byteOffset": 6708,
      "componentType": 5126,
      "count": 57,
      "max": [
        0.419538289308548,
        0.22581951320171356,
        0.7869980335235596
      ],
      "min": [
        -0.9029874205589294,
        -0.9390383362770081,
        -0.9333794713020325
      ],
      "type": "VEC3"
    },
    {
      "bufferView": 1,
      "byteOffset": 2008,
      "componentType": 5126,
      "count": 57,
      "max": [
        0.40000006556510925,
        0.8237917423248291
      ],
      "min": [
        -0.10000002384185791,
        0.0
      ],
      "type": "VEC2"
    },
    {
      "bufferView": 0,
      "byteOffset": 1188,
      "componentType": 5125,
      "count": 57,
      "type": "SCALAR"
    },
    {
      "bufferView": 2,
      "byteOffset": 7392,
      "componentType": 5126,
      "count": 24,
      "max": [
        6303.09326171875,
        7774.30712890625,
        3654.22705078125
      ],
      "min": [
        -1651.799072265625,
        791.4552001953125,
        -6442.27001953125
      ],
      "type": "VEC3"
    },
    {
      "bufferView": 2,
      "byteOffset": 7680,
      "componentType": 5126,
      "count": 24,
      "max": [
        0.6695893406867981,
        0.9497639536857605,
        0.28797104954719543
      ],
      "min": [
        0.009883800521492958,
        0.275249183177948,
        -0.7596031427383423
      ],
      "type": "VEC3"
    },
    {
      "bufferView": 1,
      "byteOffset": 2464,
      "componentType": 5126,
      "count": 24,
      "max": [
        0.7999999523162842,
        0.6762081384658813
      ],
      "min": [
        0.5,
        0.1762082278728485
      ],
      "type": "VEC2"
    },
    {
      "bufferView": 0,
      "byteOffset": 1416,
      "componentType": 5125,
      "count": 24,
      "type": "SCALAR"
    },
    {
      "bufferView": 2,
      "byteOffset": 7968,
      "componentType": 5126,
      "count": 360,
      "max": [
        9734.1748046875,
        9841.8505859375,
        761.7655639648438
      ],
      "min": [
        -9804.078125,
        -9841.8505859375,
        -2988.586669921875
      ],
      "type": "VEC3"
    },
    {
      "bufferView": 2,
      "byteOffset": 12288,
      "componentType": 5126,
      "count": 360,
      "max": [
        0.9920780658721924,
        0.9435223340988159,
        0.9920781254768372
      ],
      "min": [
        -0.9920780658721924,
        -0.9435223340988159,
        -0.9328494668006897
      ],
      "type": "VEC3"
    },
    {
      "bufferView": 1,
      "byteOffset": 2656,
      "componentType": 5126,
      "count": 360,
      "max": [
        0.9500000476837158,
        0.5
      ],
      "min": [
        -0.10000002384185791,
        0.3237918019294739
      ],
      "type": "VEC2"
    },
    {
      "bufferView": 0,
      "byteOffset": 1512,
      "componentType": 5125,
      "count": 480,
      "type": "SCALAR"
    },
    {
      "bufferView": 2,
      "byteOffset": 16608,
      "componentType": 5126,
      "count": 360,
      "max": [
        9734.1748046875,
        9841.8505859375,
        761.7655639648438
      ],
      "min": [
        -9804.078125,
        -9841.8505859375,
        -2988.586669921875
      ],
      "type": "VEC3"
    },
    {
      "bufferView": 2,
      "byteOffset": 20928,
      "componentType": 5126,
      "count": 360,
      "max": [
        0.9920780658721924,
        0.9435223340988159,
        0.9920781254768372
      ],
      "min": [
        -0.9920780658721924,
        -0.9435223340988159,
        -0.9328494668006897
      ],
      "type": "VEC3"
    },
    {
      "bufferView": 1,
      "byteOffset": 5536,
      "componentType": 5126,
      "count": 360,
      "max": [
        0.9500000476837158,
        0.5
      ],
      "min": [
        -0.10000002384185791,
        0.3237918019294739
      ],
      "type": "VEC2"
    },
    {
      "bufferView": 0,
      "byteOffset": 3432,
      "componentType": 5125,
      "count": 480,
      "type": "SCALAR"
    },
    {
      "bufferView": 2,
      "byteOffset": 25248,
      "componentType": 5126,
      "count": 360,
      "max": [
        9734.1748046875,
        9841.8505859375,
        761.7655639648438
      ],
      "min": [
        -9804.078125,
        -9841.8505859375,
        -2988.586669921875
      ],
      "type": "VEC3"
    },
    {
      "bufferView": 2,
      "byteOffset": 29568,
      "componentType": 5126,
      "count": 360,
      "max": [
        0.9920780658721924,
        0.9435223340988159,
        0.9920781254768372
      ],
      "min": [
        -0.9920780658721924,
        -0.9435223340988159,
        -0.9328494668006897
      ],
      "type": "VEC3"
    },
    {
      "bufferView": 1,
      "byteOffset": 8416,
      "componentType": 5126,
      "count": 360,
      "max": [
        0.9500000476837158,
        0.5
      ],
      "min": [
        -0.10000002384185791,
        0.3237918019294739
      ],
      "type": "VEC2"
    },
    {
      "bufferView": 0,
      "byteOffset": 5352,
      "componentType": 5125,
      "count": 480,
      "type": "SCALAR"
    }
  ],
  "asset": {
    "extras": {
      "author": "DigitalSte (https://sketchfab.com/stecgartist)",
      "license": "CC-BY-4.0 (http://creativecommons.org/licenses/by/4.0/)",
      "source": "https://sketchfab.com/3d-models/the-colourful-cosmos-0003-f3899e7416664d89870253d9a998b8fd",
      "title": "The Colourful Cosmos #0003:"
    },
    "generator": "Sketchfab-12.68.0",
    "version": "2.0"
  },
  "bufferViews": [
    {
      "buffer": 0,
      "byteLength": 7272,
      "name": "floatBufferViews",
      "target": 34963
    },
    {
      "buffer": 0,
      "byteLength": 11296,
      "byteOffset": 7272,
      "byteStride": 8,
      "name": "floatBufferViews",
      "target": 34962
    },
    {
      "buffer": 0,
      "byteLength": 33888,
      "byteOffset": 18568,
      "byteStride": 12,
      "name": "floatBufferViews",
      "target": 34962
    }
  ],
  "buffers": [
    {
      "byteLength": 52456,
      "uri": "scene.bin"
    }
  ],
  "extensionsUsed": [
    "KHR_materials_transmission"
  ],
  "materials": [
    {
      "doubleSided": true,
      "name": "01_-_Default",
      "pbrMetallicRoughness": {
        "baseColorFactor": [
          0.0045869894,
          0.0101496743,
          0.4159183584,
          1.0
        ],
        "metallicFactor": 0.0,
        "roughnessFactor": 0.8929713596
      }
    },
    {
      "doubleSided": true,
      "name": "03_-_Default",
      "pbrMetallicRoughness": {
        "baseColorFactor": [
          0.0006849503,
          0.8297293781,
          1.0,
          1.0
        ],
        "metallicFactor": 0.0,
        "roughnessFactor": 0.0
      }
    },
    {
      "doubleSided": true,
      "name": "08_-_Default",
      "pbrMetallicRoughness": {
        "baseColorFactor": [
          0.032866142,
          0.864824582,
          0.7850865621,
          1.0
        ],
        "metallicFactor": 0.0,
        "roughnessFactor": 0.29907003750000005
      }
    },
    {
      "alphaMode": "BLEND",
      "doubleSided": true,
      "extensions": {
        "KHR_materials_transmission": {
          "transmissionFactor": 0.7672433711
        }
      },
      "name": "02_-_Default",
      "pbrMetallicRoughness": {
        "baseColorFactor": [
          0.0005394741,
          0.0075790296,
          0.5830405018,
          0.25
        ],
        "metallicFactor": 0.0,
        "roughnessFactor": 0.8929713596
      }
    }
  ],
  "meshes": [
    {
      "name": "GeoSphere001_01 - Default_0",
      "primitives": [
        {
          "attributes": {
            "NORMAL": 1,
            "POSITION": 0,
            "TEXCOORD_0": 2
          },
          "indices": 3,
          "material": 0,
          "mode": 4
        }
      ]
    },
    {
      "name": "GeoSphere001_03 - Default_0",
      "primitives": [
        {
          "attributes": {
            "NORMAL": 5,
            "POSITION": 4,
            "TEXCOORD_0": 6
          },
          "indices": 7,
          "material": 1,
          "mode": 4
        }
      ]
    },
    {
      "name": "GeoSphere001_08 - Default_0",
      "primitives": [
        {
          "attributes": {
            "NORMAL": 9,
            "POSITION": 8,
            "TEXCOORD_0": 10
          },
          "indices": 11,
          "material": 2,
          "mode": 4
        }
      ]
    },
    {
      "name": "Object001_02 - Default_0",
      "primitives": [
        {
          "attributes": {
            "NORMAL": 13,
            "POSITION": 12,
            "TEXCOORD_0": 14
          },
          "indices": 15,
          "material": 3,
          "mode": 4
        }
      ]
    },
    {
      "name": "Object002_02 - Default_0",
      "primitives": [
        {
          "attributes": {
            "NORMAL": 17,
            "POSITION": 16,
            "TEXCOORD_0": 18
          },
          "indices": 19,
          "material": 3,
          "mode": 4
        }
      ]
    },
    {
      "name": "Object003_02 - Default_0",
      "primitives": [
        {
          "attributes": {
            "NORMAL": 21,
            "POSITION": 20,
            "TEXCOORD_0": 22
          },
          "indices": 23,
          "material": 3,
          "mode": 4
        }
      ]
    }
  ],
  "nodes": [
    {
      "children": [
        1
      ],
      "matrix": [
        1.0,
        0.0,
        0.0,
        0.0,
        0.0,
        2.220446049250313e-16,
        -1.0,
        0.0,
        0.0,
        1.0,
        2.220446049250313e-16,
        0.0,
        0.0,
        0.0,
        0.0,
        1.0
      ],
      "name": "Sketchfab_model"
    },
    {
      "children": [
        2
      ],
      "matrix": [
        1.0,
        0.0,
        0.0,
        0.0,
        0.0,
        0.0,
        1.0,
        0.0,
        0.0,
        -1.0,
        0.0,
        0.0,
        0.0,
        0.0,
        0.0,
        1.0
      ],
      "name": "17791f62d7544d829c17835b26f7ae5e.fbx"
    },
    {
      "children": [
        3,
        7,
        9,
        11
      ],
      "name": "RootNode"
    },
    {
      "children": [
        4,
        5,
        6
      ],
      "matrix": [
        1.0,
        0.0,
        0.0,
        0.0,
        0.0,
        2.220446049250313e-16,
        -1.0,
        0.0,
        0.0,
        1.0,
        2.220446049250313e-16,
        0.0,
        -6763.486328125,
        0.0,
        4364.17578125,
        1.0
      ],
      "name": "GeoSphere001"
    },
    {
      "mesh": 0,
      "name": "GeoSphere001_01 - Default_0"
    },
    {
      "mesh": 1,
      "name": "GeoSphere001_03 - Default_0"
    },
    {
      "mesh": 2,
      "name": "GeoSphere001_08 - Default_0"
    },
    {
      "children": [
        8
      ],
      "matrix": [
        1.6050064920123082,
        -0.34388891626027757,
        0.0,
        0.0,
        0.0,
        0.0,
        -1.6414339542388916,
        0.0,
        0.34388891626027757,
        1.6050064920123082,
        0.0,
        0.0,
        -6451.15576171875,
        1908.65576171875,
        4362.9580078125,
        1.0
      ],
      "name": "Object001"
    },
    {
      "mesh": 3,
      "name": "Object001_02 - Default_0"
    },
    {
      "children": [
        10
      ],
      "matrix": [
        -1.1762364433119068,
        0.2520205831099797,
        0.5780859856510232,
        -0.0,
        0.5652567774898324,
        -0.1211120250396862,
        1.2029323698300445,
        -0.0,
        -0.2796113365738757,
        -1.3050086023285914,
        -2.615346718652933e-08,
        -0.0,
        -7016.56103515625,
        -730.2169189453125,
        4362.9580078125,
        1.0
      ],
      "name": "Object002"
    },
    {
      "mesh": 4,
      "name": "Object002_02 - Default_0"
    },
    {
      "children": [
        12
      ],
      "matrix": [
        1.1750612736927604,
        -0.25176878233622124,
        -0.09501756895338481,
        0.0,
        -0.09290889444796684,
        0.019906675821638544,
        -1.2017306339989489,
        0.0,
        0.25255453965694485,
        1.1787285775783987,
        3.83464660422069e-09,
        0.0,
        -6451.15576171875,
        1908.65576171875,
        4362.9580078125,
        1.0
      ],
      "name": "Object003"
    },
    {
      "mesh": 5,
      "name": "Object003_02 - Default_0"
    }
  ],
  "scene": 0,
  "scenes": [
    {
      "name": "Sketchfab_Scene",
      "nodes": [
        0
      ]
    }
  ]
}
