<svg xmlns="http://www.w3.org/2000/svg" version="1.1" xmlns:xlink="http://www.w3.org/1999/xlink" xmlns:svgjs="http://svgjs.dev/svgjs" width="1000" height="750" viewBox="0 0 1000 750"><rect width="1000" height="750" fill="#ffffff"></rect><g transform="matrix(0.834,0,0,0.834,82.49454545454546,120.11494999105565)"><svg viewBox="0 0 396 247" data-background-color="#ffffff" preserveAspectRatio="xMidYMid meet" height="623" width="1000" xmlns="http://www.w3.org/2000/svg" xmlns:xlink="http://www.w3.org/1999/xlink"><g id="tight-bounds" transform="matrix(1,0,0,1,0.2400000000000091,-0.09999999999999432)"><svg viewBox="0 0 395.52 247.2" height="247.2" width="395.52"><g><svg></svg></g><g><svg viewBox="0 0 395.52 247.2" height="247.2" width="395.52"><g transform="matrix(1,0,0,1,75.54432,66.33530803573065)"><svg viewBox="0 0 244.43135999999998 114.52938392853869" height="114.52938392853869" width="244.43135999999998"><g><svg viewBox="0 0 244.43135999999998 114.52938392853869" height="114.52938392853869" width="244.43135999999998"><g><svg viewBox="0 0 244.43135999999998 114.52938392853869" height="114.52938392853869" width="244.43135999999998"><g><svg viewBox="0 0 244.43135999999998 114.52938392853869" height="114.52938392853869" width="244.43135999999998"><g><svg viewBox="0 0 244.43135999999998 114.52938392853869" height="114.52938392853869" width="244.43135999999998"><g><svg viewBox="0 0 244.43135999999998 67.28284404203718" height="67.28284404203718" width="244.43135999999998"><g transform="matrix(1,0,0,1,0,0)"><svg width="244.43135999999998" viewBox="1.7999999523162842 -32.70000076293945 123.68999481201172 34.04999923706055" height="67.28284404203718" data-palette-color="#7a26c1"><path d="M26.35 1.35Q21.45-6.45 16.48-13.85 11.5-21.25 11.5-21.15L11.5-21.15 11.05-21.15 11-5.4Q11-4.1 11.38-3.63 11.75-3.15 12.7-3.15L12.7-3.15 14.9-3.25 15.15-2.95 14.65 0.2Q13.95 0.15 12.05 0.08 10.15 0 8.25 0L8.25 0Q6.6 0 4.7 0.18 2.8 0.35 2.25 0.4L2.25 0.4 2.6-2.9Q4.15-3.1 4.85-3.83 5.55-4.55 5.6-6.05L5.6-6.05 6.2-25.9Q6.2-27.5 5.4-28.15 4.6-28.8 2.15-29.05L2.15-29.05 1.8-29.5 2.15-32.35Q2.7-32.3 4.5-32.2 6.3-32.1 7.85-32.1L7.85-32.1Q9.15-32.1 10.63-32.18 12.1-32.25 12.55-32.3L12.55-32.3Q16.65-25.6 21.38-18.5 26.1-11.4 26.1-11.5L26.1-11.5 26.6-11.5 26.5-26.75Q26.45-27.9 26.08-28.4 25.7-28.9 24.85-28.9L24.85-28.9 23.1-28.85 22.95-29.2 23.3-32.3Q24-32.25 25.88-32.18 27.75-32.1 29.65-32.1L29.65-32.1Q31.15-32.1 33.02-32.2 34.9-32.3 35.5-32.35L35.5-32.35 35.25-29.05Q33.55-28.8 32.83-28.1 32.1-27.4 32.05-25.9L32.05-25.9 31.4 0.7 26.35 1.35ZM52.45 0.4L52.2 0 52.45-2.95Q54.15-3.1 54.92-3.28 55.7-3.45 56-3.78 56.3-4.1 56.3-4.75L56.3-4.75Q56.3-5.35 56.05-6.5L56.05-6.5 55-10.35Q52.4-10.45 50.4-10.45L50.4-10.45Q49.5-10.45 46.65-10.2L46.65-10.2 45.6-10.1 44.35-6.25Q44.05-5.15 44.05-4.7L44.05-4.7Q44.05-3.8 44.57-3.45 45.1-3.1 46.4-3.1L46.4-3.1 48.55-3.1 48.8-2.75 48.45 0.3Q47.75 0.25 45.45 0.13 43.15 0 41.15 0L41.15 0Q39.05 0 37.37 0.05 35.7 0.1 35.15 0.15L35.15 0.15 35.5-3.1Q36.65-3.3 37.4-4.05 38.15-4.8 38.8-6.5L38.8-6.5 47.75-31.85 55.4-32.65 55.95-32.4Q56.7-29.55 59.07-20.73 61.45-11.9 63.15-6.55L63.15-6.55Q63.7-4.75 64.55-4 65.4-3.25 67.1-3.1L67.1-3.1 67.3-2.75 66.95 0.15Q66.3 0.1 64.5 0.05 62.7 0 60.85 0L60.85 0Q58.2 0 55.67 0.18 53.15 0.35 52.45 0.4L52.45 0.4ZM46.8-14.3L50.4-14.3Q50.95-14.3 54.1-14.45L54.1-14.45 51.15-25.6 50.5-25.6 46.8-14.3ZM77.9 0.6Q75.6 0.6 73.65 0.18 71.7-0.25 70.42-0.75 69.15-1.25 69.15-1.3L69.15-1.3 68.75-2Q68.8-2.35 68.97-3.53 69.15-4.7 69.35-6.68 69.55-8.65 69.55-10.5L69.55-10.5 73.65-10.8Q73.65-8 74.15-6.5 74.65-5 75.82-4.38 77-3.75 79.2-3.75L79.2-3.75Q81.6-3.75 83.05-4.8 84.5-5.85 84.5-7.7L84.5-7.7Q84.5-9.35 82.97-10.5 81.45-11.65 78.25-13.2L78.25-13.2Q78.05-13.3 77.1-13.75L77.1-13.75Q73.35-15.55 71.25-17.55 69.15-19.55 69.15-22.75L69.15-22.75Q69.15-25.6 70.85-27.88 72.55-30.15 75.57-31.43 78.6-32.7 82.45-32.7L82.45-32.7Q84.65-32.7 86.52-32.4 88.4-32.1 89.52-31.78 90.65-31.45 90.95-31.35L90.95-31.35 91.3-30.7Q91.25-30.4 91-29.18 90.75-27.95 90.5-26.05 90.25-24.15 90.1-22.15L90.1-22.15 86.4-21.85 85.95-22.15Q85.95-22.3 86-22.78 86.05-23.25 86.05-23.95L86.05-23.95Q86.05-26.2 84.92-27.15 83.8-28.1 81.15-28.1L81.15-28.1Q79-28.1 77.62-27.08 76.25-26.05 76.25-24.45L76.25-24.45Q76.25-23.25 77.12-22.28 78-21.3 79.22-20.6 80.45-19.9 82.8-18.75L82.8-18.75Q85.6-17.4 87.42-16.3 89.25-15.2 90.5-13.5 91.75-11.8 91.75-9.45L91.75-9.45Q91.75-6.45 90.02-4.17 88.3-1.9 85.17-0.65 82.05 0.6 77.9 0.6L77.9 0.6ZM110.64 0.4L110.39 0 110.64-2.95Q112.34-3.1 113.12-3.28 113.89-3.45 114.19-3.78 114.49-4.1 114.49-4.75L114.49-4.75Q114.49-5.35 114.24-6.5L114.24-6.5 113.19-10.35Q110.59-10.45 108.59-10.45L108.59-10.45Q107.69-10.45 104.84-10.2L104.84-10.2 103.79-10.1 102.54-6.25Q102.24-5.15 102.24-4.7L102.24-4.7Q102.24-3.8 102.77-3.45 103.29-3.1 104.59-3.1L104.59-3.1 106.74-3.1 106.99-2.75 106.64 0.3Q105.94 0.25 103.64 0.13 101.34 0 99.34 0L99.34 0Q97.24 0 95.57 0.05 93.89 0.1 93.34 0.15L93.34 0.15 93.69-3.1Q94.84-3.3 95.59-4.05 96.34-4.8 96.99-6.5L96.99-6.5 105.94-31.85 113.59-32.65 114.14-32.4Q114.89-29.55 117.27-20.73 119.64-11.9 121.34-6.55L121.34-6.55Q121.89-4.75 122.74-4 123.59-3.25 125.29-3.1L125.29-3.1 125.49-2.75 125.14 0.15Q124.49 0.1 122.69 0.05 120.89 0 119.04 0L119.04 0Q116.39 0 113.87 0.18 111.34 0.35 110.64 0.4L110.64 0.4ZM104.99-14.3L108.59-14.3Q109.14-14.3 112.29-14.45L112.29-14.45 109.34-25.6 108.69-25.6 104.99-14.3Z" opacity="1" transform="matrix(1,0,0,1,0,0)" fill="#7a26c1" class="undefined-text-0" data-fill-palette-color="primary" id="text-0"></path></svg></g></svg></g><g transform="matrix(1,0,0,1,0,83.16670873210515)"><svg viewBox="0 0 244.43135999999998 31.362675196433546" height="31.362675196433546" width="244.43135999999998"><g transform="matrix(1,0,0,1,0,0)"><svg width="244.43135999999998" viewBox="2 -33.939998626708984 350.45001220703125 44.97999954223633" height="31.362675196433546" data-palette-color="#7a26c1"><path d="M2.98-23.93L2.98-23.93Q2.98-27.69 5.86-30.1 8.74-32.52 12.55-32.52L12.55-32.52Q13.62-32.52 14.58-32.4 15.53-32.28 16.14-32.13 16.75-31.98 17.9-31.67 19.04-31.35 19.92-31.15L19.92-31.15Q20.51-28.56 20.51-24.17L20.51-24.17Q20.51-23.83 20.02-23.83L20.02-23.83Q18.85-23.83 18.75-24.32L18.75-24.32Q18.51-26.46 16.67-28.49 14.84-30.52 12.21-30.52L12.21-30.52Q9.28-30.52 8.08-29.05 6.88-27.59 6.88-25.44L6.88-25.44Q6.88-24.51 7.23-23.66 7.57-22.8 7.91-22.24 8.25-21.68 9.16-20.95 10.06-20.21 10.47-19.92 10.89-19.63 12.13-18.85 13.38-18.07 13.72-17.87L13.72-17.87Q13.96-17.72 15.43-16.82 16.89-15.92 17.43-15.55 17.97-15.19 19.12-14.23 20.26-13.28 20.78-12.55 21.29-11.82 21.75-10.72 22.22-9.62 22.22-8.45L22.22-8.45Q22.22-4.54 19.17-2.03 16.11 0.49 12.01 0.49L12.01 0.49Q10.84 0.49 9.52 0.32 8.2 0.15 7.32-0.02 6.45-0.2 5.1-0.51 3.76-0.83 3.22-0.93L3.22-0.93Q2-6.93 2-8.69L2-8.69Q2-8.98 2.78-8.98L2.78-8.98Q3.66-8.98 4-8.54L4-8.54Q5.66-1.51 12.11-1.51L12.11-1.51Q14.55-1.51 16.26-2.98 17.97-4.44 17.97-7.13L17.97-7.13Q17.97-8.11 17.68-8.94 17.38-9.77 17.07-10.3 16.75-10.84 15.94-11.45 15.14-12.06 14.7-12.35 14.26-12.65 13.09-13.28 11.91-13.92 11.47-14.16L11.47-14.16Q10.06-14.99 9.5-15.33 8.94-15.67 7.64-16.53 6.35-17.38 5.76-18.04 5.18-18.7 4.39-19.65 3.61-20.61 3.3-21.68 2.98-22.75 2.98-23.93ZM37.11-21.29L37.11-21.29Q41.79-21.29 44.43-18.14 47.07-14.99 47.07-11.43L47.07-11.43Q47.07-6.74 43.8-3.17 40.52 0.39 36.37 0.39L36.37 0.39Q35.64 0.39 35.08 0.34 34.52 0.29 34.08 0.17 33.64 0.05 33.4-0.05 33.15-0.15 32.76-0.32 32.37-0.49 32.27-0.54L32.27-0.54Q32.08-0.29 32.08 0.1L32.08 0.1 32.08 4.3Q32.08 7.13 32.47 8.64L32.47 8.64Q32.57 8.98 33.74 9.3 34.91 9.62 35.4 9.62L35.4 9.62Q35.54 9.62 35.59 10.23 35.64 10.84 35.54 11.04L35.54 11.04Q30.66 10.79 30.32 10.79L30.32 10.79Q30.03 10.79 25 11.04L25 11.04Q24.8 10.84 24.8 10.23 24.8 9.62 25 9.62L25 9.62Q25.58 9.62 26.73 9.3 27.88 8.98 27.98 8.64L27.98 8.64Q28.32 7.23 28.32 5.22L28.32 5.22 28.32-14.94Q28.32-16.85 27.63-17.58L27.63-17.58Q27.15-18.16 26.44-18.38 25.73-18.6 25.27-18.6 24.8-18.6 24.8-18.7L24.8-18.7Q24.8-19.87 25.1-19.92L25.1-19.92Q30.27-20.7 31.83-21.19L31.83-21.19Q31.88-21.19 31.98-21.22 32.08-21.24 32.08-21.24L32.08-21.24Q32.22-21.24 32.22-20.97 32.22-20.7 32.18-20.31 32.13-19.92 32.13-19.87L32.13-19.87 32.13-19.58Q32.81-20.07 34.4-20.68 35.98-21.29 37.11-21.29ZM35.54-18.9L35.54-18.9Q34.03-18.9 33.05-18.09 32.08-17.29 32.08-15.77L32.08-15.77 32.08-4.79Q32.08-3.47 33.49-2.56 34.91-1.66 36.57-1.66L36.57-1.66Q39.45-1.66 41.16-4.25 42.87-6.84 42.87-10.06L42.87-10.06Q42.87-14.16 40.7-16.53 38.52-18.9 35.54-18.9ZM59.91-19.48L59.91-19.48Q57.37-19.48 56.03-17.31 54.68-15.14 54.68-13.72L54.68-13.72Q54.68-13.38 54.98-13.38L54.98-13.38 64.5-13.38Q64.74-13.38 64.74-13.87L64.74-13.87Q64.74-15.43 63.42-17.46 62.1-19.48 59.91-19.48ZM60.4-21.29L60.4-21.29Q62.64-21.29 64.35-20.43 66.06-19.58 66.96-18.24 67.87-16.89 68.28-15.5 68.7-14.11 68.7-12.74L68.7-12.74Q68.7-11.77 68.4-11.55 68.11-11.33 67.28-11.33L67.28-11.33 54.98-11.33Q54.58-11.33 54.58-11.08L54.58-11.08Q54.58-8.01 56.44-5.42 58.3-2.83 61.81-2.83L61.81-2.83Q62.84-2.83 63.76-3.03 64.69-3.22 65.35-3.49 66.01-3.76 66.47-4.03 66.94-4.3 67.28-4.54L67.28-4.54 67.62-4.79Q67.91-4.79 67.91-4.15L67.91-4.15Q67.91-3.76 67.62-3.27L67.62-3.27Q66.65-1.9 64.74-0.81 62.84 0.29 60.59 0.29L60.59 0.29Q56.54 0.29 53.63-2.76 50.73-5.81 50.73-10.21L50.73-10.21Q50.73-15.33 53.49-18.31 56.25-21.29 60.4-21.29ZM81.19-21.29L81.19-21.29Q86.56-21.29 88.62-18.8L88.62-18.8Q88.62-15.53 86.81-15.53L86.81-15.53Q85.98-15.53 85.54-15.89 85.1-16.26 84.42-17.24L84.42-17.24Q82.9-19.48 80.8-19.48L80.8-19.48Q78.8-19.48 77.17-17.58 75.53-15.67 75.53-11.91L75.53-11.91Q75.53-8.01 77.46-5.42 79.39-2.83 82.81-2.83L82.81-2.83Q83.83-2.83 84.76-3.03 85.69-3.22 86.35-3.49 87-3.76 87.47-4.03 87.93-4.3 88.27-4.54L88.27-4.54 88.62-4.79Q88.91-4.79 88.91-4.15L88.91-4.15Q88.91-3.76 88.62-3.27L88.62-3.27Q87.64-1.9 85.73-0.81 83.83 0.29 81.58 0.29L81.58 0.29Q77.53 0.29 74.63-2.76 71.72-5.81 71.72-10.21L71.72-10.21Q71.72-14.7 74.16-17.99 76.6-21.29 81.19-21.29ZM94.55-27.22Q93.84-27.93 93.84-28.96 93.84-29.98 94.55-30.69 95.25-31.4 96.28-31.4 97.3-31.4 98.01-30.69 98.72-29.98 98.72-28.96 98.72-27.93 98.01-27.22 97.3-26.51 96.28-26.51 95.25-26.51 94.55-27.22ZM98.53-16.65L98.53-6.59Q98.53-3.76 98.92-2.25L98.92-2.25Q99.01-1.9 100.19-1.59 101.36-1.27 101.85-1.27L101.85-1.27Q101.99-1.27 102.04-0.68 102.09-0.1 101.99 0.15L101.99 0.15Q97.11-0.1 96.77-0.1 96.43-0.1 91.45 0.15L91.45 0.15Q91.25-0.05 91.25-0.66 91.25-1.27 91.45-1.27L91.45-1.27Q92.03-1.27 93.18-1.59 94.33-1.9 94.42-2.25L94.42-2.25Q94.77-3.66 94.77-5.66L94.77-5.66 94.77-14.89Q94.77-16.8 94.08-17.53L94.08-17.53Q93.59-18.12 92.89-18.33 92.18-18.55 91.71-18.55 91.25-18.55 91.25-18.65L91.25-18.65Q91.25-19.82 91.54-19.87L91.54-19.87Q96.72-20.65 98.28-21.14L98.28-21.14 98.38-21.19Q98.48-21.19 98.53-21.19L98.53-21.19Q98.72-21.19 98.77-20.78 98.82-20.36 98.77-20.17L98.77-20.17Q98.53-18.21 98.53-16.65L98.53-16.65ZM109.66-3.15Q110.49-2.44 111.8-2.44 113.12-2.44 114.34-3.25 115.56-4.05 115.56-4.88L115.56-4.88 115.56-9.91Q115.17-9.72 113.66-9.23 112.15-8.74 111.29-8.37 110.44-8.01 109.63-7.15 108.83-6.3 108.83-5.18L108.83-5.18Q108.83-3.86 109.66-3.15ZM114.25-21.29L114.25-21.29Q116.93-21.29 118.1-20 119.27-18.7 119.27-15.82L119.27-15.82 119.27-4.54Q119.27-3.52 119.81-2.83 120.35-2.15 121.28-2.15L121.28-2.15Q121.96-2.15 122.99-2.83L122.99-2.83Q123.18-2.83 123.18-2.44L123.18-2.44Q123.18-1.81 122.94-1.42L122.94-1.42Q120.93 0.29 119.52 0.29L119.52 0.29Q118.4 0.29 117.37-0.63 116.34-1.56 115.95-2.59L115.95-2.59Q115.91-2.59 115.59-2.27 115.27-1.95 114.73-1.54 114.2-1.12 113.49-0.68 112.78-0.24 111.83 0.05 110.88 0.34 109.9 0.34L109.9 0.34Q107.65 0.34 106.19-0.85 104.72-2.05 104.72-4.44L104.72-4.44Q104.72-5.52 105.26-6.47 105.8-7.42 106.53-8.03 107.26-8.64 108.53-9.28 109.8-9.91 110.71-10.23 111.61-10.55 113.07-11.04 114.54-11.52 115.12-11.77L115.12-11.77Q115.56-11.91 115.56-12.5L115.56-12.5 115.56-16.16Q115.56-17.72 114.59-18.58 113.61-19.43 112.24-19.43L112.24-19.43Q110.78-19.43 109.8-18.43 108.83-17.43 108.83-15.82L108.83-15.82Q108.83-14.11 106.82-14.11L106.82-14.11Q105.46-14.11 104.92-15.04L104.92-15.04Q104.92-17.14 108-19.21 111.07-21.29 114.25-21.29ZM127.72-5.66L127.72-5.66 127.72-26.81Q127.72-28.47 127.43-29.93L127.43-29.93Q127.18-30.71 124.94-30.71L124.94-30.71 124.5-30.71Q124.2-30.71 124.2-31.25L124.2-31.25Q124.2-32.03 124.5-32.03L124.5-32.03Q125.96-32.18 127.21-32.42 128.45-32.67 129.16-32.91 129.87-33.15 130.36-33.37 130.84-33.59 131.09-33.74L131.09-33.74 131.28-33.89 131.38-33.89Q131.58-33.89 131.77-33.62 131.97-33.35 132.02-33.11L132.02-33.11Q131.48-31.54 131.48-28.86L131.48-28.86 131.48-6.59Q131.48-3.76 131.87-2.25L131.87-2.25Q131.97-1.9 133.14-1.59 134.31-1.27 134.8-1.27L134.8-1.27Q134.95-1.27 134.99-0.68 135.04-0.1 134.95 0.15L134.95 0.15Q130.06-0.1 129.72-0.1L129.72-0.1Q129.43-0.1 124.4 0.15L124.4 0.15Q124.2-0.05 124.2-0.66 124.2-1.27 124.4-1.27L124.4-1.27Q124.99-1.27 126.13-1.59 127.28-1.9 127.38-2.25L127.38-2.25Q127.72-3.66 127.72-5.66ZM161.41-33.94L161.41-33.94Q164.92-33.94 166.04-32.03L166.04-32.03Q166.04-28.96 164.29-28.96L164.29-28.96Q163.65-28.96 163.07-29.71 162.48-30.47 161.72-31.25 160.97-32.03 159.89-32.03L159.89-32.03Q157.74-32.03 156.57-29.39 155.4-26.76 155.4-23.19L155.4-23.19 155.4-20.7Q155.4-20.46 155.64-20.46L155.64-20.46 161.06-20.46Q161.31-20.46 161.31-20.12L161.31-20.12Q161.31-19.34 160.72-18.16L160.72-18.16 155.69-18.16Q155.4-18.16 155.4-17.87L155.4-17.87 155.4-6.59Q155.4-3.96 155.84-2.25L155.84-2.25Q155.94-1.9 157.04-1.59 158.13-1.27 158.57-1.27L158.57-1.27Q158.72-1.27 158.77-0.68 158.82-0.1 158.72 0.15L158.72 0.15Q153.84-0.1 153.5-0.1L153.5-0.1Q153.35-0.1 148.37 0.15L148.37 0.15Q148.27 0.05 148.22-0.32 148.17-0.68 148.22-0.98 148.27-1.27 148.37-1.27L148.37-1.27Q148.95-1.27 150.03-1.59 151.1-1.9 151.2-2.25L151.2-2.25Q151.69-4.15 151.69-6.59L151.69-6.59 151.69-17.82Q151.69-18.16 151.44-18.16L151.44-18.16 148.86-18.16Q148.71-18.16 148.71-18.46L148.71-18.46Q148.71-18.9 149.49-19.68 150.27-20.46 151.15-20.46L151.15-20.46 151.44-20.46Q151.69-20.46 151.69-20.75L151.69-20.75 151.69-21.39Q151.69-26.51 154.74-30.22 157.79-33.94 161.41-33.94ZM173.46-19.43L173.46-19.43Q170.88-19.43 169.24-17.07 167.6-14.7 167.6-11.28L167.6-11.28Q167.6-7.28 169.68-4.42 171.75-1.56 174.54-1.56L174.54-1.56Q177.13-1.56 178.79-4 180.45-6.45 180.45-9.86L180.45-9.86Q180.45-13.82 178.35-16.63 176.25-19.43 173.46-19.43ZM174-21.34L174-21.34Q178.4-21.34 181.52-18.16 184.65-14.99 184.65-10.55L184.65-10.55Q184.65-6.05 181.59-2.86 178.54 0.34 174.1 0.34 169.66 0.34 166.53-2.86 163.41-6.05 163.41-10.55L163.41-10.55Q163.41-15.09 166.43-18.21 169.46-21.34 174-21.34ZM200.81-21.34L200.81-21.34Q203.69-21.34 204.61-19.92L204.61-19.92Q204.61-18.21 204.08-17.43 203.54-16.65 202.76-16.65L202.76-16.65Q201.88-16.65 201.15-17.48 200.41-18.31 199.14-18.31L199.14-18.31Q197.63-18.31 196.51-16.89 195.39-15.48 195.39-13.92L195.39-13.92 195.39-6.59Q195.39-3.76 195.78-2.25L195.78-2.25Q195.87-1.9 197.07-1.59 198.27-1.27 198.75-1.27L198.75-1.27Q198.9-1.27 198.95-0.68 199-0.1 198.9 0.15L198.9 0.15Q194.02-0.1 193.63-0.1L193.63-0.1Q193.33-0.1 188.31 0.15L188.31 0.15Q188.11-0.05 188.11-0.66 188.11-1.27 188.31-1.27L188.31-1.27Q188.89-1.27 190.04-1.59 191.19-1.9 191.28-2.25L191.28-2.25Q191.63-3.66 191.63-5.66L191.63-5.66 191.63-14.89Q191.63-16.8 190.94-17.53L190.94-17.53Q190.45-18.12 189.75-18.33 189.04-18.55 188.57-18.55 188.11-18.55 188.11-18.65L188.11-18.65Q188.11-19.82 188.4-19.87L188.4-19.87Q193.58-20.65 195.14-21.14L195.14-21.14Q195.19-21.14 195.29-21.17 195.39-21.19 195.39-21.19L195.39-21.19Q195.58-21.19 195.63-20.78 195.68-20.36 195.63-20.17L195.63-20.17 195.34-17.72Q196.22-19.04 197.75-20.19 199.29-21.34 200.81-21.34ZM238.54-8.59L238.54-8.59Q238.54-11.72 236.44-13.94 234.35-16.16 229.85-16.16L229.85-16.16Q228.78-16.16 226.34-15.97L226.34-15.97Q226.14-15.38 226.14-14.36L226.14-14.36 226.14-7.23Q226.14-3.52 226.92-2.88L226.92-2.88Q227.66-2.2 229.56-2.2L229.56-2.2Q230.78-2.2 231.98-2.39 233.17-2.59 234.83-3.15 236.49-3.71 237.52-5.1 238.54-6.49 238.54-8.59ZM221.89-6.98L221.89-6.98 221.89-25.44Q221.89-28.32 221.55-29.64L221.55-29.64Q221.41-30.03 220.11-30.37 218.82-30.71 218.18-30.71L218.18-30.71Q217.99-30.71 217.99-31.3L217.99-31.3Q217.99-31.93 218.18-32.13L218.18-32.13Q220.72-32.03 223.99-32.03L223.99-32.03Q226.48-32.03 228.07-32.06 229.66-32.08 230.88-32.08L230.88-32.08Q232.15-32.08 233.47-31.86 234.78-31.64 236.18-31.05 237.57-30.47 238.64-29.59 239.72-28.71 240.4-27.27 241.08-25.83 241.08-24.07 241.08-22.31 239.96-20.8 238.84-19.29 237.89-18.7 236.93-18.12 236.25-17.87L236.25-17.87Q235.86-17.72 236.01-17.58L236.01-17.58Q237.91-17.24 240.55-14.82 243.18-12.4 243.18-9.13L243.18-9.13Q243.18-4.93 239.79-2.47 236.4 0 230.78 0L230.78 0 224.09 0 218.18 0.15Q218.04 0 218.04-0.63 218.04-1.27 218.18-1.27L218.18-1.27Q218.82-1.27 220.06-1.61 221.31-1.95 221.55-2.39L221.55-2.39Q221.89-2.98 221.89-6.98ZM232.1-18.36L232.1-18.36Q234.1-18.55 235.44-19.75 236.79-20.95 236.79-22.95L236.79-22.95Q236.79-26.32 235.1-28.2 233.42-30.08 230.1-30.08L230.1-30.08Q227.85-30.08 226.63-29.74L226.63-29.74Q226.34-29.69 226.34-29.3L226.34-29.3 226.14-24.37 226.14-18.55Q226.14-18.21 229.36-18.21L229.36-18.21Q230.93-18.21 232.1-18.36ZM248.11-23.93L248.11-23.93Q248.11-27.69 250.99-30.1 253.87-32.52 257.68-32.52L257.68-32.52Q258.76-32.52 259.71-32.4 260.66-32.28 261.27-32.13 261.88-31.98 263.03-31.67 264.18-31.35 265.06-31.15L265.06-31.15Q265.64-28.56 265.64-24.17L265.64-24.17Q265.64-23.83 265.15-23.83L265.15-23.83Q263.98-23.83 263.88-24.32L263.88-24.32Q263.64-26.46 261.81-28.49 259.98-30.52 257.34-30.52L257.34-30.52Q254.41-30.52 253.21-29.05 252.02-27.59 252.02-25.44L252.02-25.44Q252.02-24.51 252.36-23.66 252.7-22.8 253.04-22.24 253.39-21.68 254.29-20.95 255.19-20.21 255.61-19.92 256.02-19.63 257.27-18.85 258.51-18.07 258.85-17.87L258.85-17.87Q259.1-17.72 260.56-16.82 262.03-15.92 262.57-15.55 263.1-15.19 264.25-14.23 265.4-13.28 265.91-12.55 266.42-11.82 266.89-10.72 267.35-9.62 267.35-8.45L267.35-8.45Q267.35-4.54 264.3-2.03 261.25 0.49 257.15 0.49L257.15 0.49Q255.97 0.49 254.66 0.32 253.34 0.15 252.46-0.02 251.58-0.2 250.24-0.51 248.89-0.83 248.36-0.93L248.36-0.93Q247.14-6.93 247.14-8.69L247.14-8.69Q247.14-8.98 247.92-8.98L247.92-8.98Q248.8-8.98 249.14-8.54L249.14-8.54Q250.8-1.51 257.24-1.51L257.24-1.51Q259.68-1.51 261.39-2.98 263.1-4.44 263.1-7.13L263.1-7.13Q263.1-8.11 262.81-8.94 262.52-9.77 262.2-10.3 261.88-10.84 261.08-11.45 260.27-12.06 259.83-12.35 259.39-12.65 258.22-13.28 257.05-13.92 256.61-14.16L256.61-14.16Q255.19-14.99 254.63-15.33 254.07-15.67 252.78-16.53 251.48-17.38 250.9-18.04 250.31-18.7 249.53-19.65 248.75-20.61 248.43-21.68 248.11-22.75 248.11-23.93ZM276.77-32.08L276.77-32.08Q277.55-32.08 282.44-32.32L282.44-32.32Q282.53-32.03 282.53-31.64L282.53-31.64Q282.53-30.91 282.34-30.91L282.34-30.91Q281.85-30.91 280.58-30.57 279.31-30.22 279.21-29.88L279.21-29.88Q278.77-28.17 278.77-25.34L278.77-25.34 278.77-14.45Q278.77-8.94 281.12-5.66 283.46-2.39 287.76-2.39L287.76-2.39Q296.11-2.39 296.11-13.38L296.11-13.38 296.11-25.59Q296.11-28.56 295.77-29.88L295.77-29.88Q295.62-30.27 294.08-30.64 292.54-31.01 291.91-31.01L291.91-31.01Q291.71-31.01 291.71-31.57 291.71-32.13 291.91-32.32L291.91-32.32Q292.54-32.28 294.45-32.15 296.35-32.03 297.67-32.03L297.67-32.03Q298.94-32.03 300.87-32.18 302.8-32.32 303.14-32.32L303.14-32.32Q303.24-32.03 303.24-31.59L303.24-31.59Q303.24-31.01 303.04-31.01L303.04-31.01Q302.55-31.01 300.92-30.62 299.28-30.22 299.18-29.88L299.18-29.88Q298.79-28.37 298.79-25.34L298.79-25.34 298.79-13.48Q298.79-5.91 295.62-2.95 292.45 0 286.59 0L286.59 0Q280.78 0 277.65-3.42 274.53-6.84 274.53-14.45L274.53-14.45 274.53-25.54Q274.53-28.56 274.18-29.88L274.18-29.88Q274.04-30.27 272.79-30.59 271.55-30.91 270.91-30.91L270.91-30.91Q270.72-30.91 270.72-31.54L270.72-31.54Q270.72-32.13 270.91-32.32L270.91-32.32Q276.53-32.08 276.77-32.08ZM309.87-6.59L309.87-25.54Q309.87-28.56 309.53-29.88L309.53-29.88Q309.39-30.27 308.14-30.59 306.9-30.91 306.26-30.91L306.26-30.91Q306.07-30.91 306.07-31.54L306.07-31.54Q306.07-32.13 306.26-32.32L306.26-32.32Q311.88-32.08 312.12-32.08L312.12-32.08Q312.9-32.08 317.78-32.32L317.78-32.32Q317.88-32.03 317.88-31.59L317.88-31.59Q317.88-30.91 317.69-30.91L317.69-30.91Q317.2-30.91 315.93-30.57 314.66-30.22 314.56-29.88L314.56-29.88Q314.12-28.17 314.12-25.34L314.12-25.34 314.12-6.79Q314.12-3.96 314.56-2.25L314.56-2.25Q314.66-1.9 315.93-1.59 317.2-1.27 317.69-1.27L317.69-1.27Q317.88-1.27 317.88-0.54L317.88-0.54Q317.88-0.15 317.78 0.15L317.78 0.15Q312.9-0.1 312.12-0.1L312.12-0.1Q311.88-0.1 306.26 0.15L306.26 0.15Q306.07-0.05 306.07-0.59L306.07-0.59Q306.07-1.27 306.26-1.27L306.26-1.27Q306.9-1.27 308.14-1.56 309.39-1.86 309.53-2.25L309.53-2.25Q309.87-3.56 309.87-6.59L309.87-6.59ZM333.75-30.08L333.75-30.08Q331.55-30.08 330.33-29.74L330.33-29.74Q330.14-29.69 330.01-29.37 329.89-29.05 329.82-27.91 329.75-26.76 329.75-24.37L329.75-24.37 329.75-18.46Q329.75-17.04 333.99-17.04L333.99-17.04 335.21-17.04Q336.92-17.04 338.75-18.75 340.59-20.46 340.59-23.29L340.59-23.29Q340.59-30.08 333.75-30.08ZM334.53-32.23L334.53-32.23Q336.19-32.23 337.9-31.74 339.61-31.25 341.27-30.27 342.93-29.3 344-27.49 345.08-25.68 345.08-23.29L345.08-23.29Q345.08-21.24 343.54-18.99 342-16.75 339.36-15.53L339.36-15.53Q338.88-15.33 339.07-15.04L339.07-15.04Q341.51-9.91 344.69-6.45L344.69-6.45Q349.37-1.32 352.3-1.32L352.3-1.32Q352.45-1.03 352.45-0.63L352.45-0.63Q352.45-0.2 352.3 0.1L352.3 0.1Q351.77 0.24 350.99 0.24L350.99 0.24Q344.15 0.24 339.12-6.79L339.12-6.79Q338.34-7.86 337.34-9.35 336.34-10.84 335.87-11.5 335.41-12.16 334.8-12.94 334.19-13.72 333.72-14.11 333.26-14.5 332.72-14.75L332.72-14.75Q332.19-14.94 330.92-14.94L330.92-14.94Q330.53-14.94 330.33-14.92 330.14-14.89 329.94-14.7 329.75-14.5 329.75-14.11L329.75-14.11 329.75-6.93Q329.75-3.66 330.14-2.69L330.14-2.69Q330.38-2.05 331.87-1.66 333.36-1.27 333.99-1.27L333.99-1.27Q334.19-1.27 334.19-0.59L334.19-0.59Q334.19-0.15 334.09 0.15L334.09 0.15Q329.21-0.1 327.74-0.1L327.74-0.1 321.79 0.15Q321.64 0 321.64-0.73L321.64-0.73Q321.64-1.37 321.79-1.37L321.79-1.37Q322.47-1.37 323.69-1.66 324.91-1.95 325.16-2.39L325.16-2.39Q325.5-2.98 325.5-6.98L325.5-6.98 325.5-25.44Q325.5-28.32 325.16-29.64L325.16-29.64Q325.01-30.03 323.71-30.37 322.42-30.71 321.79-30.71L321.79-30.71Q321.59-30.71 321.59-31.3L321.59-31.3Q321.59-31.93 321.79-32.13L321.79-32.13 327.65-32.03Q329.11-32.03 331.11-32.13 333.11-32.23 334.53-32.23Z" opacity="1" transform="matrix(1,0,0,1,0,0)" fill="#7a26c1" class="undefined-text-1" data-fill-palette-color="secondary" id="text-1"></path></svg></g></svg></g></svg></g></svg></g><g></g></svg></g></svg></g></svg></g><g><path d="M99.852 50.451A122.216 122.216 0 0 1 295.668 50.451L289.6 50.451A116.148 116.148 0 0 0 105.92 50.451L99.852 50.451M99.852 196.749A122.216 122.216 0 0 0 295.668 196.749L289.6 196.749A116.148 116.148 0 0 1 105.92 196.749L99.852 196.749" fill="#7a26c1" stroke="transparent" data-fill-palette-color="tertiary"></path></g></svg></g><defs></defs></svg><rect width="395.52" height="247.2" fill="none" stroke="none" visibility="hidden"></rect></g></svg></g></svg>