{
  "accessors": [
    {
      "bufferView": 1,
      "componentType": 5126,
      "count": 4546,
      "max": [
        1.0092116594314575,
        1.0636159181594849,
        1.0798040628433228
      ],
      "min": [
        -1.0201013088226318,
        -1.064885139465332,
        -1.0439034700393677
      ],
      "type": "VEC3"
    },
    {
      "bufferView": 1,
      "byteOffset": 54552,
      "componentType": 5126,
      "count": 4546,
      "max": [
        0.9999986290931702,
        0.9996366500854492,
        1.0
      ],
      "min": [
        -0.999078094959259,
        -1.0,
        -0.9999939799308777
      ],
      "type": "VEC3"
    },
    {
      "bufferView": 0,
      "componentType": 5125,
      "count": 27264,
      "type": "SCALAR"
    }
  ],
  "asset": {
    "extras": {
      "author": "tkkjee ​🥀 (https://sketchfab.com/tkkjee)",
      "license": "CC-BY-4.0 (http://creativecommons.org/licenses/by/4.0/)",
      "source": "https://sketchfab.com/3d-models/moon-meteor-cartoon-8a949575123b4a8d9434526d20314a11",
      "title": "🌕 Moon \\ Meteor Cartoon"
    },
    "generator": "Sketchfab-14.90.0",
    "version": "2.0"
  },
  "bufferViews": [
    {
      "buffer": 0,
      "byteLength": 109056,
      "name": "floatBufferViews",
      "target": 34963
    },
    {
      "buffer": 0,
      "byteLength": 109104,
      "byteOffset": 109056,
      "byteStride": 12,
      "name": "floatBufferViews",
      "target": 34962
    }
  ],
  "buffers": [
    {
      "byteLength": 218160,
      "uri": "scene.bin"
    }
  ],
  "extensionsUsed": [
    "KHR_materials_specular"
  ],
  "materials": [
    {
      "doubleSided": true,
      "extensions": {
        "KHR_materials_specular": {
          "specularColorFactor": [
            1.0,
            1.0,
            1.0
          ],
          "specularFactor": 0.13419457862125103
        }
      },
      "name": "Scene_-_Root",
      "pbrMetallicRoughness": {
        "baseColorFactor": [
          0.1083994609852086,
          0.11892437979481978,
          0.1233947482941719,
          1.0
        ],
        "metallicFactor": 0.0,
        "roughnessFactor": 0.9410128380282284
      }
    }
  ],
  "meshes": [
    {
      "name": "Object_0",
      "primitives": [
        {
          "attributes": {
            "NORMAL": 1,
            "POSITION": 0
          },
          "indices": 2,
          "material": 0,
          "mode": 4
        }
      ]
    }
  ],
  "nodes": [
    {
      "children": [
        1
      ],
      "matrix": [
        1.0,
        0.0,
        0.0,
        0.0,
        0.0,
        2.220446049250313e-16,
        -1.0,
        0.0,
        0.0,
        1.0,
        2.220446049250313e-16,
        0.0,
        0.0,
        0.0,
        0.0,
        1.0
      ],
      "name": "Sketchfab_model"
    },
    {
      "children": [
        2
      ],
      "name": "root"
    },
    {
      "children": [
        3
      ],
      "matrix": [
        1.0,
        0.0,
        0.0,
        0.0,
        0.0,
        2.220446049250313e-16,
        1.0,
        0.0,
        0.0,
        -1.0,
        2.220446049250313e-16,
        0.0,
        0.0,
        0.0,
        0.0,
        1.0
      ],
      "name": "GLTF_SceneRootNode"
    },
    {
      "children": [
        4
      ],
      "name": "Icosphere_0"
    },
    {
      "mesh": 0,
      "name": "Object_4"
    }
  ],
  "scene": 0,
  "scenes": [
    {
      "name": "Sketchfab_Scene",
      "nodes": [
        0
      ]
    }
  ]
}
